/* XPM */
static char *_f7c66e4fa524f98ddcd9c0a1919bdc3[] = {
/* columns rows colors chars-per-pixel */
"130 23 78 1 ",
"  c None",
". c #05031B",
"X c #080525",
"o c #0B0634",
"O c #0C073A",
"+ c #0C083D",
"@ c #0D0740",
"# c #0E0944",
"$ c #0F094B",
"% c #110A53",
"& c #120B5C",
"* c #140C64",
"= c #160D6C",
"- c #170E73",
"; c #180F77",
": c #170E78",
"> c #180F7D",
", c #19107F",
"< c #3B117D",
"1 c #6C0F5E",
"2 c #770F57",
"3 c #7C0F54",
"4 c #720F5A",
"5 c #6E105C",
"6 c #5F0F66",
"7 c #560F6C",
"8 c #5A0F6A",
"9 c #5E1067",
"0 c #54106D",
"q c #5A106A",
"w c #461076",
"e c #4C1073",
"r c #421079",
"t c #501070",
"y c #630F63",
"u c #690F60",
"i c #641063",
"p c #681060",
"a c #9D0E3E",
"s c #B50D2E",
"d c #BB0D2A",
"f c #A70D37",
"g c #AC0E34",
"h c #A30E3A",
"j c #B20D31",
"k c #CE0C1E",
"l c #DC0C15",
"z c #D30C1A",
"x c #D80D18",
"c c #E60C0E",
"v c #EA0C0C",
"b c #EC140B",
"n c #ED1B0A",
"m c #E30C11",
"M c #EE230A",
"N c #EF2909",
"B c #F02C09",
"V c #F13607",
"C c #F33B07",
"Z c #F13308",
"A c #F23908",
"S c #C30D25",
"D c #CA0C21",
"F c #8E0E47",
"G c #850E4D",
"H c #8B0E4A",
"J c #940E44",
"K c #990E41",
"L c #810E50",
"P c #190F81",
"I c #1A1084",
"U c #1B118C",
"Y c #1C1191",
"T c #2E1186",
"R c #23118D",
"E c #2A1189",
"W c #331183",
"Q c #381180",
/* pixels */
"                                                                                                                                  ",
"                                                                                                                                  ",
"                                                                                                                                  ",
"      nvvmllxkDDSddjjgfhaKJJFGLL332444uuiyyi9q0tteeewrr<<WWWTEERRRYYYYYYYYYYYYYYUYYYYUYUUYUUUUUUUUUUUUUIIUIIIIIIP>>,--=&%         ",
"      nbvcllxkkDSSddjgghhKJJFHLL33324411piy89qq00teewrr<<<WWTEERRRYYYYYYYYYYYYYYYYYYYYYUYUUYUUUUUUIUIUIUUIIIIIIII,>>:-=&%$        ",
"      nbvcmlxzzDSSddjggfhKKJFHHLL332245uuuyy98800eeeerr<<QWWWWEERRYYYYYYYYYYYYYYYYYUUUYYUYUUUUUUUUUUUIUIIIIIII,IP>I,,-=*&$+.      ",
"      Mnvc                                                                                                     IPI>,:-=*&$+X      ",
"      Mnbvc                                                                                                     PI>>,:-=*%#o      ",
"      Nnbvcm                                                                                                     P>I>>-=*&$+      ",
"      BMnvcml                                                                                                     I>,P-=*&%@      ",
"      BMnvvmll                                                                                                     P>,--=&%#      ",
"      ZBnbvmmlx                                                                                                     ,P,-=*%$      ",
"      ABMbvvmlxx                                                                                                     ,,-=*&%      ",
"      ABNnvvclxxz                                                                                                     >--=&%      ",
"      CZBnbvcmlxzD                                                                                                     :-=*%      ",
"      CABnnvcmlxzzD                                                                                                     -=*&      ",
"       ABNnvvmllxzDDSddjjgfhaKJJFGLLL332441uuiy98qq0teeewrr<<<WWWEERRYYYYYYYYYYYYYYYYYYYYYUYUUUUUUUUUIIUIPUIIPIIIIPPP,>>--=&      ",
"        ZMnbvmmlxzDDSSddjgghhKKJJGGLL322411uuyyy9q700eeewrrr<<WWWWEERYRYYYYYYYYYYYYYYYYYUYYUYUUYUUUUUUUUUUUUIUIIIIII>II>:-        ",
"         BMbvcmlxzkDDSdssggfhaKJFFGLL3324441uiyy99000eeewwr<<WWWWEEERRRYYYYYYYYYYYYYYYYYYUYYUYUUUUUPUUUIUIUPUPIIIPI,I>P>:         ",
"          MnvcclxzzzSSSdsjgghaKJFFHLL333224uuyiy998q0teewwrr<<QWEWEEERYYYYYYYYYYYYYYYYYYYYUYYUUUUUUUUUUUUUIUPUIUIIPI,IP,          ",
"                                                                                                                                  ",
"                                                                                                                                  ",
"                                                                                                                                  "
};
